<?xml version="1.0" standalone="no"?>
<!DOCTYPE svg PUBLIC "-//W3C//DTD SVG 20010904//EN"
 "http://www.w3.org/TR/2001/REC-SVG-20010904/DTD/svg10.dtd">
<svg version="1.0" xmlns="http://www.w3.org/2000/svg"
 width="1680.000000pt" height="1753.000000pt" viewBox="0 0 1680.000000 1753.000000"
 preserveAspectRatio="xMidYMid meet">

<g transform="translate(0.000000,1753.000000) scale(0.100000,-0.100000)"
fill="#000000" stroke="none">
<path d="M7830 15070 c-255 -18 -327 -26 -550 -60 -176 -27 -238 -40 -465 -94
-452 -109 -867 -263 -1285 -478 -268 -138 -383 -207 -374 -227 8 -20 51 -176
103 -371 21 -80 52 -197 70 -260 17 -63 41 -151 52 -195 12 -44 34 -127 50
-185 16 -58 47 -175 70 -260 23 -85 50 -186 60 -225 11 -38 35 -128 54 -200
18 -71 48 -182 65 -245 17 -63 40 -146 50 -185 10 -38 25 -95 34 -125 8 -30
29 -109 46 -175 17 -66 40 -150 50 -187 16 -59 17 -67 3 -72 -26 -10 -175 -39
-266 -51 -12 -1 -60 -10 -107 -18 -200 -36 -268 -34 -319 9 -31 26 -42 55 -91
239 -12 44 -44 163 -72 265 -27 102 -54 201 -58 220 -14 54 -74 280 -150 560
-17 63 -38 142 -46 175 -8 33 -18 71 -23 85 -5 14 -18 61 -30 105 -110 416
-152 575 -161 601 -5 17 -10 38 -10 47 0 9 -3 17 -6 17 -16 0 -438 -386 -497
-454 l-48 -56 45 -168 c70 -260 86 -318 190 -712 42 -157 85 -316 96 -355 11
-38 54 -198 96 -355 66 -251 117 -441 131 -491 5 -19 -31 -30 -202 -59 -66
-12 -167 -30 -225 -41 -124 -23 -198 -24 -245 -5 -54 23 -65 46 -125 271 -10
39 -25 95 -33 125 -9 30 -27 98 -41 150 -13 52 -34 129 -45 170 -29 112 -122
459 -136 510 -7 25 -25 90 -40 145 -26 98 -31 112 -39 104 -16 -17 -166 -257
-223 -356 l-70 -122 49 -173 c59 -210 76 -273 184 -683 19 -71 48 -177 64
-235 16 -58 38 -140 50 -182 11 -43 29 -113 41 -155 11 -43 31 -118 44 -168
13 -49 44 -164 69 -255 24 -91 54 -201 66 -245 12 -44 30 -114 41 -155 11 -41
31 -115 44 -165 13 -49 53 -200 90 -335 37 -135 78 -288 92 -340 13 -52 38
-144 54 -205 17 -60 39 -141 49 -180 68 -253 215 -688 294 -870 8 -16 22 -50
32 -75 102 -243 278 -543 437 -744 189 -238 351 -372 562 -464 102 -44 316
-78 435 -68 218 18 297 35 625 139 302 95 499 195 694 352 121 97 119 92 110
220 -21 308 -69 708 -109 910 -5 28 -22 113 -36 190 -61 327 -133 656 -216
990 -28 110 -54 216 -58 235 -4 19 -19 78 -33 130 -37 139 -166 623 -187 705
-10 39 -30 113 -43 165 -72 268 -162 607 -187 705 -27 104 -50 190 -105 400
-52 193 -95 355 -123 465 -17 63 -40 151 -52 195 -144 533 -174 694 -168 909
l3 125 50 51 c86 87 223 146 574 245 90 25 165 44 168 41 3 -2 49 -182 103
-398 98 -392 198 -783 265 -1038 20 -74 47 -177 61 -227 23 -89 50 -190 93
-351 10 -40 21 -75 23 -78 3 -2 12 38 21 89 72 400 317 741 723 1003 185 120
436 222 709 288 268 64 386 81 595 80 196 0 294 -16 395 -63 80 -37 120 -73
153 -135 27 -50 27 -53 25 -236 -1 -124 -6 -211 -17 -265 -23 -112 -37 -155
-52 -155 -7 0 -48 11 -91 24 -74 23 -114 32 -247 56 -165 29 -500 -3 -691 -66
-330 -108 -575 -335 -641 -594 -22 -85 -22 -287 0 -390 39 -181 112 -337 238
-505 89 -119 351 -388 511 -526 55 -46 112 -96 128 -111 125 -117 721 -566
1077 -811 45 -31 117 -81 160 -110 42 -30 190 -129 327 -222 264 -178 597
-402 729 -492 86 -59 91 -58 101 7 5 31 22 123 56 295 24 125 66 400 83 550
35 298 38 355 33 655 -2 168 -9 341 -16 385 -33 218 -107 526 -147 609 -13 28
-24 51 -24 54 0 6 157 76 255 114 142 55 385 148 440 168 114 42 463 143 545
157 22 4 31 -4 66 -59 40 -63 48 -80 79 -153 9 -22 20 -49 25 -60 12 -27 82
-262 118 -400 17 -60 39 -145 51 -187 11 -43 30 -111 40 -150 11 -40 31 -118
46 -173 15 -55 33 -125 42 -155 8 -30 23 -86 33 -125 10 -38 28 -106 40 -150
12 -44 30 -111 40 -150 21 -82 35 -131 128 -480 39 -143 80 -295 91 -337 12
-43 30 -113 42 -155 11 -43 27 -100 34 -128 8 -27 23 -84 34 -125 21 -78 108
-408 138 -518 9 -35 20 -59 24 -55 9 11 63 226 99 398 37 175 65 349 79 485 7
58 17 148 24 200 17 130 16 819 -1 960 -7 58 -19 166 -28 240 -68 598 -272
1276 -558 1850 -282 566 -622 1037 -1083 1497 -411 411 -751 667 -1303 983
-52 29 -354 179 -430 212 -386 172 -798 302 -1219 388 -156 32 -384 65 -621
90 -128 14 -695 21 -840 10z m3990 -1514 c61 -13 146 -53 184 -88 58 -52 71
-68 112 -131 24 -37 44 -70 44 -74 0 -3 6 -14 14 -22 17 -21 53 -117 76 -206
10 -38 30 -115 45 -170 48 -176 54 -214 60 -385 4 -112 -7 -240 -25 -290 -5
-14 -10 -36 -12 -50 -5 -39 -72 -166 -110 -208 -52 -57 -131 -120 -161 -127
-15 -4 -27 -11 -27 -16 0 -13 -74 -43 -165 -67 -44 -12 -129 -36 -190 -53
-293 -83 -511 -24 -696 188 -15 17 -30 39 -33 50 -4 12 -18 33 -31 49 -14 16
-25 36 -25 45 0 9 -7 22 -15 29 -8 7 -15 21 -15 31 0 10 -4 20 -9 23 -20 13
-134 418 -155 556 -12 81 -13 154 -1 183 4 9 5 23 2 30 -11 29 25 154 71 245
35 71 64 113 112 162 106 107 201 162 350 200 47 12 108 29 135 36 226 63 260
70 344 69 47 -1 102 -5 121 -9z"/>
<path d="M2511 10404 c-1 -6 -12 -75 -25 -155 -22 -137 -31 -204 -58 -454 -16
-148 -16 -784 0 -945 25 -249 55 -452 98 -663 274 -1338 982 -2498 2049 -3358
517 -416 1171 -768 1815 -976 605 -196 1156 -283 1779 -283 250 0 361 6 596
31 936 98 1838 424 2610 943 671 450 1234 1031 1668 1718 l37 58 -28 6 c-68
17 -186 81 -552 295 -80 47 -176 103 -215 124 -202 111 -341 185 -347 185 -4
0 -30 -44 -57 -97 -215 -428 -495 -745 -866 -980 -333 -211 -681 -332 -1130
-394 -114 -16 -437 -16 -535 0 -258 40 -380 77 -575 171 -327 158 -577 408
-767 767 l-54 102 -80 -80 c-246 -250 -701 -497 -1254 -683 -91 -30 -192 -62
-225 -71 -33 -9 -73 -20 -90 -24 -68 -19 -264 -63 -315 -72 -229 -38 -274 -42
-490 -43 -285 0 -462 28 -693 110 -613 220 -1091 817 -1446 1809 -138 385
-242 720 -360 1165 -22 85 -75 281 -117 435 -41 154 -88 330 -104 390 -16 61
-53 200 -83 310 -30 110 -73 272 -96 360 -49 183 -88 315 -90 299z"/>
<path d="M7623 10125 c3 -11 19 -72 36 -135 16 -63 39 -149 49 -190 82 -307
160 -630 211 -872 12 -54 30 -140 41 -190 11 -51 27 -133 35 -183 9 -49 19
-98 22 -108 3 -13 24 16 72 100 98 173 246 389 433 629 5 7 -34 47 -114 115
-289 244 -565 537 -723 764 -59 85 -69 97 -62 70z"/>
<path d="M12397 8900 c-3 -14 -11 -72 -17 -130 -29 -265 -85 -542 -181 -898
-7 -25 -8 -47 -3 -52 10 -9 541 -296 566 -305 20 -8 22 -23 -39 205 -24 91
-55 206 -68 255 -13 50 -38 144 -56 210 -17 66 -42 158 -54 205 -13 47 -30
110 -38 140 -47 171 -71 263 -87 325 -14 55 -19 65 -23 45z"/>
<path d="M9039 8632 c-263 -369 -399 -731 -399 -1062 0 -188 56 -460 129 -629
117 -269 346 -498 601 -600 171 -67 376 -82 591 -43 450 83 801 318 1061 712
72 109 191 337 185 353 -3 8 -49 40 -103 72 -490 291 -1241 773 -1559 1000
-49 35 -108 77 -130 92 -22 15 -95 70 -162 121 -67 50 -126 92 -130 92 -5 0
-42 -49 -84 -108z"/>
<path d="M13194 5978 c-60 -89 -110 -164 -112 -168 -2 -5 191 -151 298 -225
16 -11 74 -54 130 -95 258 -192 296 -219 307 -220 15 0 281 377 271 384 -2 2
-24 17 -50 34 l-46 32 -83 -125 c-46 -69 -88 -124 -94 -123 -17 5 -225 152
-225 160 0 4 27 47 60 95 33 48 60 89 60 93 0 6 -84 60 -93 60 -3 0 -34 -41
-68 -90 l-61 -90 -27 17 c-132 87 -191 130 -191 140 0 7 32 61 70 119 l71 107
-45 29 c-25 15 -50 28 -54 28 -4 0 -57 -73 -118 -162z"/>
<path d="M13015 5645 c-5 -2 -23 -6 -38 -10 -40 -8 -124 -90 -153 -147 -33
-65 -31 -120 6 -184 16 -29 42 -62 57 -74 29 -22 201 -175 326 -288 81 -73
110 -90 170 -98 56 -8 118 18 181 77 53 48 106 150 106 200 -1 46 -31 108 -71
145 -44 40 -248 194 -257 193 -4 0 -36 -37 -70 -81 l-64 -81 44 -38 43 -37 27
25 c30 29 26 31 124 -49 98 -79 108 -112 50 -172 -35 -38 -62 -44 -99 -24 -27
14 -391 319 -429 359 -37 39 -37 83 -1 121 41 43 77 37 157 -26 l38 -31 35 40
c57 66 57 67 4 107 -26 20 -60 42 -77 50 -30 16 -92 29 -109 23z"/>
<path d="M12619 5263 c-59 -65 -70 -45 137 -247 104 -101 186 -187 182 -191
-6 -6 -148 68 -436 228 l-53 29 -52 -48 c-29 -26 -59 -53 -66 -60 -13 -12 -3
-26 65 -97 43 -45 156 -165 249 -267 94 -102 200 -216 237 -255 l67 -70 47 41
c26 22 49 45 52 52 2 6 -98 114 -222 240 -124 126 -226 232 -226 236 0 13 21
3 171 -80 85 -47 220 -119 300 -159 l146 -74 29 32 c16 18 42 46 57 63 l28 31
-162 149 c-450 413 -518 474 -521 474 -2 0 -15 -12 -29 -27z"/>
<path d="M12099 4767 c-20 -17 -54 -48 -77 -67 l-41 -35 105 -190 c58 -104
155 -289 217 -410 61 -121 113 -222 114 -224 4 -7 113 81 113 92 0 5 -16 39
-36 74 -35 63 -35 65 -17 85 25 28 139 118 149 118 5 0 35 -23 67 -50 65 -56
59 -56 136 12 22 21 41 41 41 45 0 5 -40 37 -87 73 -83 62 -339 264 -433 342
-175 144 -204 168 -209 168 -3 0 -22 -15 -42 -33z m284 -350 c75 -66 137 -122
137 -127 0 -9 -109 -100 -119 -100 -4 0 -38 55 -76 123 -38 67 -88 154 -112
193 -24 39 -43 77 -43 84 0 6 17 -3 38 -22 21 -18 100 -86 175 -151z"/>
<path d="M11755 4497 c-17 -12 -41 -29 -53 -38 l-23 -16 111 -157 c60 -87 110
-163 110 -170 0 -11 -133 -106 -149 -106 -4 0 -55 74 -115 165 l-107 164 -59
-36 c-52 -33 -57 -39 -48 -57 13 -24 397 -641 444 -713 l34 -53 61 38 c34 20
63 42 66 48 2 6 -42 80 -97 164 -56 84 -104 158 -106 164 -2 6 32 36 77 66 66
44 82 52 89 40 5 -8 30 -45 57 -82 26 -37 73 -103 103 -147 30 -44 58 -80 62
-81 10 0 127 83 128 90 0 3 -69 99 -152 212 -84 113 -206 278 -272 367 -65 89
-121 161 -125 161 -3 -1 -20 -11 -36 -23z"/>
<path d="M11191 4138 c-19 -5 -58 -25 -87 -43 -68 -44 -94 -92 -94 -174 0 -56
7 -74 129 -318 71 -142 141 -273 156 -291 68 -81 161 -92 279 -33 114 56 173
154 147 244 -13 45 -87 177 -99 177 -4 0 -33 -15 -64 -33 l-57 -33 39 -69 c22
-39 39 -84 40 -101 0 -52 -74 -103 -124 -84 -30 11 -48 38 -121 175 -32 61
-87 164 -122 230 -85 160 -84 213 4 231 43 9 68 -8 105 -73 18 -30 38 -55 43
-54 6 1 33 15 62 31 l52 30 -41 66 c-71 113 -148 151 -247 122z"/>
<path d="M10630 3855 c-14 -7 -95 -41 -180 -75 -85 -34 -156 -63 -157 -64 -1
-1 27 -80 63 -176 36 -96 71 -193 79 -215 16 -47 148 -408 164 -447 l10 -28
83 31 c46 17 142 55 214 85 l132 56 -22 54 c-11 30 -24 54 -27 54 -3 0 -64
-24 -135 -54 -71 -30 -132 -51 -136 -48 -12 13 -100 242 -96 252 2 7 45 29 97
50 51 21 94 40 96 42 3 3 -33 96 -41 107 -2 2 -47 -15 -101 -38 -53 -22 -100
-38 -104 -33 -12 13 -102 242 -97 247 2 2 44 20 93 40 50 21 102 44 117 51
l27 14 -20 48 c-26 61 -29 63 -59 47z"/>
<path d="M10110 3656 c-36 -12 -64 -26 -64 -31 1 -6 28 -90 59 -188 31 -98 54
-181 51 -185 -9 -8 -148 -52 -166 -52 -11 0 -30 51 -69 190 -29 105 -55 190
-57 190 -14 0 -120 -32 -125 -37 -4 -5 -1 -33 7 -63 8 -30 46 -179 85 -330 39
-151 79 -309 90 -350 11 -41 25 -92 30 -113 11 -43 6 -43 118 -11 42 12 52 19
48 32 -60 194 -102 363 -93 370 20 16 169 53 176 45 4 -4 26 -69 49 -143 70
-226 72 -231 84 -226 7 2 38 12 70 22 33 9 61 23 64 30 3 8 -7 49 -22 91 -15
43 -69 200 -120 348 -139 403 -148 430 -149 431 -1 1 -30 -9 -66 -20z"/>
<path d="M9585 3509 c-16 -5 -104 -23 -195 -40 -91 -18 -169 -35 -173 -39 -4
-4 -5 -31 -1 -60 l7 -52 56 7 c108 15 103 16 117 -45 7 -30 29 -138 49 -240
68 -358 93 -481 97 -484 5 -5 142 25 151 33 4 4 -13 97 -37 207 -45 196 -65
288 -106 473 -11 52 -18 97 -15 100 9 8 96 30 123 31 26 0 28 21 10 81 -12 42
-24 46 -83 28z"/>
<path d="M8795 3380 c-27 -5 -77 -9 -111 -9 -34 -1 -83 -4 -109 -8 l-48 -6 7
-156 c11 -282 25 -562 32 -664 l7 -100 116 6 c154 9 331 26 343 33 10 6 4 101
-6 111 -3 3 -68 0 -146 -7 -77 -7 -142 -11 -145 -9 -7 8 -28 269 -22 276 4 3
52 10 108 14 55 5 105 11 109 14 4 3 7 13 5 23 -2 9 -7 34 -10 56 l-6 38 -77
-6 c-42 -4 -91 -10 -109 -13 l-31 -5 -6 54 c-3 29 -8 92 -12 139 l-6 86 74 7
c40 4 99 9 131 13 l58 6 -3 56 -3 56 -45 1 c-25 1 -67 -2 -95 -6z"/>
<path d="M7946 3211 c-4 -80 -11 -236 -16 -346 -5 -110 -11 -252 -12 -315 l-3
-115 195 0 c193 0 195 0 240 27 72 42 90 84 90 209 0 79 -5 114 -19 144 -17
38 -65 88 -93 97 -8 3 3 20 29 44 51 49 68 104 59 193 -9 80 -25 120 -64 153
-46 39 -82 46 -249 51 l-151 4 -6 -146z m295 -10 c28 -34 27 -169 -1 -199 -22
-23 -70 -36 -116 -30 -26 3 -29 7 -28 36 0 17 1 75 2 128 l2 96 61 -4 c49 -4
66 -9 80 -27z m-21 -364 c46 -16 63 -64 58 -170 -4 -102 -19 -117 -119 -117
l-69 0 0 143 c0 79 3 147 7 150 10 11 85 7 123 -6z"/>
</g>
</svg>
